# xmcd
#
# Track frame offsets: 
#        150
#        11274
#        28332
#        43866
#        60835
#        77883
#        91091
#        101909
#        116764
#        130722
#        152048
#        161572
#        175182
#        188620
#        204807
#        225264
#
# Disc length: 3126 seconds
#
# Revision: 0
# Processed by: cddbd v1.5.2PL0 Copyright (c) Steve Scherf et al.
# Submitted via: ExactAudioCopyFreeDBPlugin 1.0
#
DISCID=ba0c3410
DTITLE=Mireille Mathieu - Mireille Mathieu chante Piaf
DYEAR=2012
DGENRE=Chanson
TTITLE0=А quoi ca sert l'amour
TTITLE1=La vie en rose
TTITLE2=L'accordйoniste
TTITLE3=Exodus
TTITLE4=Jezebel
TTITLE5=Padam, Padam
TTITLE6=Non, je ne regrette rien
TTITLE7=Sous le ciel de Paris
TTITLE8=La foule
TTITLE9=Milord
TTITLE10=L'homme а la moto
TTITLE11=Mon manиge а moi
TTITLE12=Mon Dieu
TTITLE13=L'hymne а l'amour
TTITLE14=Les trois cloches
TTITLE15=La goualante du Pauvre Jean
EXTD=
EXTT0=
EXTT1=
EXTT2=
EXTT3=
EXTT4=
EXTT5=
EXTT6=
EXTT7=
EXTT8=
EXTT9=
EXTT10=
EXTT11=
EXTT12=
EXTT13=
EXTT14=
EXTT15=
PLAYORDER=
